<svg id="svg" version="1.1" xmlns="http://www.w3.org/2000/svg" xmlns:xlink="http://www.w3.org/1999/xlink" width="400" height="400" viewBox="0, 0, 400,400"><g id="svgg"><path id="path0" d="M103.662 6.982 C 106.912 7.012,112.229 7.012,115.479 6.982 C 118.728 6.952,116.069 6.928,109.570 6.928 C 103.071 6.928,100.413 6.952,103.662 6.982 M122.900 6.971 C 123.088 7.020,123.396 7.020,123.584 6.971 C 123.772 6.921,123.618 6.881,123.242 6.881 C 122.866 6.881,122.712 6.921,122.900 6.971 M125.732 6.979 C 126.189 7.020,126.936 7.020,127.393 6.979 C 127.849 6.938,127.476 6.904,126.563 6.904 C 125.649 6.904,125.276 6.938,125.732 6.979 M266.455 6.971 C 266.643 7.020,266.951 7.020,267.139 6.971 C 267.327 6.921,267.173 6.881,266.797 6.881 C 266.421 6.881,266.267 6.921,266.455 6.971 M302.002 6.979 C 302.512 7.020,303.347 7.020,303.857 6.979 C 304.368 6.939,303.950 6.906,302.930 6.906 C 301.909 6.906,301.492 6.939,302.002 6.979 M193.848 47.853 L 159.277 47.960 157.880 48.390 C 151.578 50.326,147.162 54.702,145.609 60.547 C 145.286 61.762,144.992 67.628,144.934 74.023 C 144.911 76.571,144.917 76.562,143.105 76.766 C 135.841 77.580,129.987 83.103,128.907 90.163 C 128.765 91.088,128.718 116.654,128.755 172.656 L 128.809 253.809 129.325 255.676 C 131.885 264.932,140.131 271.308,150.781 272.268 C 154.958 272.644,240.065 272.421,242.093 272.029 C 251.156 270.274,257.664 264.884,260.528 256.761 C 261.580 253.780,261.719 252.147,261.719 242.799 C 261.719 236.334,261.774 234.377,261.963 234.224 C 262.097 234.114,262.906 233.784,263.761 233.490 C 268.442 231.882,272.123 228.037,273.601 223.211 C 274.136 221.465,274.337 219.458,274.897 210.254 C 275.569 199.211,275.917 193.587,276.470 184.863 C 276.736 180.674,277.084 175.005,277.244 172.266 C 277.404 169.526,277.580 166.890,277.634 166.406 C 277.689 165.923,277.911 162.539,278.129 158.887 C 278.346 155.234,278.651 150.488,278.805 148.340 C 279.864 133.625,279.866 131.237,278.826 128.178 C 276.711 121.957,271.340 117.152,264.237 115.124 C 263.228 114.836,262.249 114.520,262.061 114.422 C 261.741 114.256,261.719 113.531,261.719 103.425 C 261.719 91.801,261.640 90.537,260.755 87.945 C 258.593 81.612,253.398 77.432,246.737 76.666 C 246.071 76.589,245.426 76.407,245.305 76.260 C 244.906 75.780,245.161 61.682,245.593 60.352 C 247.075 55.785,250.201 54.392,252.855 57.116 C 254.568 58.874,254.740 59.568,254.884 65.332 C 255.045 71.759,255.825 74.094,258.688 76.734 C 264.261 81.871,273.801 80.880,272.188 75.333 C 271.619 73.376,270.307 72.493,267.758 72.353 C 265.817 72.246,265.031 71.992,264.211 71.204 C 263.100 70.139,263.034 69.812,262.983 65.141 C 262.888 56.381,260.639 51.853,255.031 49.133 C 251.950 47.639,252.142 47.657,239.551 47.704 C 233.428 47.727,212.861 47.794,193.848 47.853 M238.558 55.783 C 238.964 55.938,238.949 56.218,238.455 57.672 C 237.247 61.237,237.252 61.167,237.165 76.304 C 237.094 88.723,237.053 90.234,236.775 90.464 C 236.285 90.871,154.036 90.950,153.417 90.545 L 152.985 90.262 152.889 77.900 C 152.756 60.948,152.946 59.976,156.882 57.368 C 159.208 55.828,155.672 55.969,194.629 55.858 C 213.750 55.803,231.387 55.737,233.822 55.711 C 236.257 55.685,238.388 55.717,238.558 55.783 M170.266 68.944 C 166.571 70.057,166.425 75.114,170.052 76.395 C 171.089 76.762,204.335 76.760,205.618 76.394 C 209.409 75.310,209.319 70.012,205.492 68.948 C 204.630 68.709,171.061 68.705,170.266 68.944 M144.688 84.805 C 144.851 84.968,144.923 86.042,144.924 88.369 C 144.928 94.440,146.399 96.976,150.758 98.433 L 152.004 98.849 194.946 98.834 C 242.602 98.816,238.811 98.918,241.069 97.595 C 243.883 95.946,244.790 93.877,244.920 88.811 C 245.032 84.450,245.021 84.479,246.484 84.680 C 249.536 85.099,251.930 86.953,253.161 89.852 L 253.613 90.918 253.663 171.387 C 253.713 251.467,253.712 251.863,253.320 253.411 C 252.057 258.409,248.363 262.155,243.066 263.807 L 241.309 264.355 195.508 264.355 C 145.076 264.355,148.530 264.435,145.485 263.205 C 141.196 261.472,137.977 257.745,136.917 253.283 C 136.523 251.621,136.522 251.375,136.571 171.169 L 136.621 90.723 137.245 89.406 C 138.289 87.201,139.992 85.775,142.578 84.939 C 143.863 84.523,144.374 84.491,144.688 84.805 M151.809 109.460 C 148.561 110.512,146.610 112.536,145.579 115.926 C 145.038 117.704,145.020 167.947,145.560 169.901 C 146.551 173.491,149.168 175.979,152.997 176.974 C 155.015 177.498,235.031 177.551,237.364 177.030 C 241.221 176.167,244.156 172.981,244.719 169.043 C 245.064 166.627,244.980 117.750,244.627 116.256 C 243.815 112.811,241.546 110.467,238.033 109.446 L 236.446 108.984 194.834 108.993 L 153.223 109.002 151.809 109.460 M235.829 117.073 C 237.218 117.653,237.119 115.568,237.063 143.149 L 237.012 168.001 236.374 168.571 L 235.736 169.141 195.117 169.141 L 154.498 169.141 153.861 168.571 C 152.989 167.793,153.010 168.585,153.125 141.265 L 153.223 117.979 153.647 117.555 C 153.880 117.322,154.399 117.078,154.800 117.013 C 156.556 116.728,235.143 116.786,235.829 117.073 M264.295 123.635 C 269.171 125.710,271.932 129.327,271.898 133.594 C 271.885 135.239,271.228 146.274,270.713 153.516 C 270.609 154.966,270.475 157.031,270.415 158.105 C 270.284 160.444,269.233 176.814,268.948 180.957 C 268.579 186.322,267.333 206.183,266.993 212.109 C 266.609 218.810,266.276 221.371,265.619 222.665 C 264.973 223.938,262.650 225.760,261.994 225.509 C 261.701 225.396,261.557 123.469,261.849 123.177 C 262.118 122.908,262.955 123.065,264.295 123.635 M166.992 130.062 C 162.766 130.924,162.469 136.791,166.605 137.678 C 168.045 137.987,204.379 137.974,205.609 137.664 C 209.003 136.810,209.313 132.012,206.072 130.493 L 204.980 129.980 186.328 129.951 C 176.069 129.935,167.368 129.985,166.992 130.062 M165.818 148.103 C 162.903 149.644,162.836 153.604,165.698 155.136 L 166.504 155.566 179.492 155.566 C 192.415 155.566,192.484 155.564,193.262 155.146 C 196.523 153.391,195.990 148.850,192.406 147.855 C 191.966 147.733,186.965 147.658,179.181 147.657 L 166.663 147.656 165.818 148.103 M153.835 189.739 C 151.601 190.536,151.086 191.827,151.125 196.535 C 151.164 201.293,151.817 202.795,154.049 203.259 C 154.999 203.457,170.826 203.465,171.530 203.269 C 173.776 202.640,174.329 200.903,174.068 195.290 C 173.891 191.475,173.628 190.852,171.815 189.948 L 170.822 189.453 162.706 189.462 C 156.327 189.468,154.428 189.528,153.835 189.739 M186.330 189.710 C 184.118 190.414,183.548 191.954,183.630 196.992 L 183.691 200.718 184.264 201.543 C 184.578 201.997,185.238 202.605,185.728 202.893 L 186.621 203.418 195.117 203.418 L 203.613 203.418 204.398 202.968 C 206.111 201.986,206.445 200.951,206.445 196.621 C 206.445 191.999,206.027 190.823,204.040 189.861 C 203.057 189.385,187.760 189.255,186.330 189.710 M218.577 189.746 C 216.287 190.460,215.723 191.832,215.723 196.680 C 215.723 200.995,216.100 202.027,218.066 203.084 C 219.125 203.653,235.356 203.547,236.474 202.964 C 238.202 202.063,238.660 200.687,238.667 196.373 C 238.674 192.007,237.960 190.336,235.812 189.693 C 234.615 189.334,219.752 189.380,218.577 189.746 M155.914 212.483 C 151.769 212.728,151.074 213.739,151.074 219.531 C 151.074 224.294,151.687 225.700,154.047 226.355 C 155.508 226.761,170.857 226.617,171.800 226.189 C 173.658 225.345,174.006 224.333,174.041 219.662 C 174.078 214.796,173.684 213.803,171.289 212.717 C 170.536 212.375,160.363 212.221,155.914 212.483 M188.281 212.479 C 184.301 212.785,183.188 214.827,183.533 221.191 C 183.666 223.647,184.111 224.834,185.202 225.645 C 186.397 226.532,186.734 226.563,195.222 226.563 L 203.276 226.563 204.315 226.020 C 206.143 225.065,206.348 224.410,206.348 219.521 L 206.348 215.497 205.762 214.556 C 205.354 213.902,204.849 213.431,204.102 213.009 L 203.027 212.402 196.484 212.377 C 192.886 212.363,189.194 212.409,188.281 212.479 M220.311 212.477 C 216.571 212.760,215.625 214.224,215.625 219.737 C 215.625 223.881,216.128 225.201,218.047 226.095 L 219.043 226.559 227.210 226.561 C 238.788 226.563,238.781 226.568,238.638 219.022 C 238.556 214.638,238.170 213.711,236.032 212.757 C 235.199 212.385,224.134 212.188,220.311 212.477 M153.809 235.754 C 151.628 236.394,150.977 238.002,150.977 242.746 C 150.977 249.529,151.270 249.702,162.793 249.705 C 174.086 249.708,174.130 249.680,174.067 242.618 C 174.024 237.803,173.606 236.758,171.344 235.810 C 170.611 235.503,154.835 235.453,153.809 235.754 M186.557 235.741 C 184.238 236.289,183.496 237.945,183.496 242.573 C 183.496 249.565,183.600 249.633,194.352 249.754 C 206.149 249.887,206.348 249.771,206.348 242.773 C 206.348 237.876,205.918 236.790,203.598 235.821 C 202.866 235.515,187.810 235.444,186.557 235.741 M218.820 235.733 C 216.372 236.317,215.621 237.965,215.630 242.734 C 215.637 246.957,216.111 248.171,218.140 249.168 L 219.238 249.707 225.977 249.725 C 236.127 249.753,236.816 249.640,237.988 247.752 L 238.574 246.808 238.574 242.691 C 238.574 237.575,238.099 236.394,235.785 235.751 C 234.947 235.518,219.788 235.502,218.820 235.733 M102.832 295.117 C 93.988 296.693,87.012 303.119,84.491 312.012 C 79.714 328.865,88.710 345.333,103.656 347.095 C 120.719 349.108,130.857 340.551,131.385 323.692 L 131.497 320.139 130.919 319.561 C 130.118 318.759,129.378 318.709,119.594 318.784 C 109.320 318.863,109.647 318.711,109.813 323.340 C 109.943 326.949,110.097 327.045,115.820 327.048 C 120.523 327.051,120.508 327.047,120.508 328.199 C 120.508 336.351,109.479 341.011,101.446 336.254 C 92.321 330.850,91.166 314.439,99.420 307.467 C 106.088 301.835,115.743 303.205,120.097 310.401 C 120.889 311.710,120.926 311.719,125.447 311.719 C 127.866 311.719,129.670 311.637,129.894 311.518 C 133.175 309.762,127.143 300.631,120.468 297.248 C 115.878 294.921,108.755 294.061,102.832 295.117 M194.184 295.134 C 184.851 296.704,179.725 303.263,180.853 312.189 C 181.716 319.013,185.475 322.042,197.266 325.413 C 207.085 328.220,208.597 329.114,208.927 332.310 C 209.346 336.375,205.911 338.652,199.711 338.421 C 194.584 338.229,191.848 336.797,190.144 333.413 C 189.016 331.174,189.200 331.250,184.933 331.250 C 179.683 331.250,179.028 331.829,179.993 335.616 C 182.084 343.814,193.031 348.790,205.176 347.064 C 214.755 345.702,219.824 340.398,219.824 331.738 C 219.824 323.216,216.146 319.796,203.125 316.211 C 193.267 313.497,191.732 312.525,191.713 308.984 C 191.678 302.090,204.360 301.425,208.576 308.100 C 209.521 309.596,209.491 309.584,212.513 309.714 C 218.525 309.971,219.643 309.096,218.270 305.205 C 215.518 297.407,205.518 293.226,194.184 295.134 M287.765 295.112 C 273.020 297.680,264.689 312.274,268.546 328.777 C 271.299 340.553,280.060 347.141,292.969 347.142 C 308.879 347.144,318.433 337.266,318.446 320.801 C 318.460 303.112,305.265 292.064,287.765 295.112 M229.297 295.499 C 224.123 295.652,224.024 295.740,224.027 300.195 C 224.031 304.970,223.657 304.756,232.231 304.883 C 237.294 304.958,238.908 305.040,239.102 305.234 C 239.305 305.438,239.375 309.441,239.453 325.416 L 239.551 345.345 240.171 345.899 C 240.961 346.604,242.043 346.749,245.747 346.645 C 250.596 346.509,250.077 349.018,250.195 325.156 C 250.274 309.396,250.343 305.438,250.547 305.234 C 250.740 305.041,252.320 304.957,257.222 304.883 C 265.589 304.756,265.300 304.930,265.320 299.992 C 265.341 294.976,266.974 295.412,248.145 295.401 C 239.766 295.396,231.284 295.440,229.297 295.499 M140.795 296.059 C 139.871 296.885,139.829 298.147,139.889 323.016 C 139.945 346.690,139.892 345.537,140.965 346.240 C 141.650 346.689,171.437 346.776,172.215 346.332 C 173.117 345.817,173.328 345.036,173.403 341.946 C 173.526 336.914,174.313 337.233,161.484 337.109 C 155.133 337.048,151.314 336.939,151.191 336.816 C 150.879 336.503,150.817 325.668,151.125 325.359 C 151.314 325.170,153.478 325.095,160.402 325.037 C 171.829 324.940,171.143 325.208,171.258 320.798 C 171.388 315.844,172.000 316.113,160.611 316.113 C 152.622 316.113,151.541 316.077,151.267 315.803 C 150.877 315.414,150.798 305.431,151.181 304.970 C 151.360 304.754,153.236 304.694,161.199 304.647 C 173.519 304.575,172.559 304.969,172.559 299.991 C 172.559 295.088,174.113 295.508,155.966 295.508 L 141.412 295.508 140.795 296.059 M296.962 304.489 C 311.482 308.203,311.780 332.984,297.358 337.433 C 294.839 338.210,289.997 337.895,287.237 336.774 C 275.073 331.831,275.397 309.400,287.695 304.973 C 290.335 304.022,294.323 303.814,296.962 304.489 M104.644 390.378 C 105.103 390.419,105.806 390.418,106.206 390.376 C 106.606 390.334,106.230 390.301,105.371 390.301 C 104.512 390.302,104.184 390.336,104.644 390.378 M108.643 390.369 C 108.831 390.418,109.138 390.418,109.326 390.369 C 109.514 390.320,109.360 390.280,108.984 390.280 C 108.608 390.280,108.455 390.320,108.643 390.369 M133.545 390.376 C 133.894 390.419,134.465 390.419,134.814 390.376 C 135.164 390.332,134.878 390.297,134.180 390.297 C 133.481 390.297,133.196 390.332,133.545 390.376 M138.428 390.380 C 139.421 390.415,141.047 390.415,142.041 390.380 C 143.035 390.344,142.222 390.315,140.234 390.315 C 138.247 390.315,137.434 390.344,138.428 390.380 M155.420 390.381 C 161.033 390.410,170.217 390.410,175.830 390.381 C 181.443 390.352,176.851 390.328,165.625 390.328 C 154.399 390.328,149.807 390.352,155.420 390.381 M195.166 390.369 C 195.354 390.418,195.662 390.418,195.850 390.369 C 196.038 390.320,195.884 390.280,195.508 390.280 C 195.132 390.280,194.978 390.320,195.166 390.369 M303.469 390.373 C 303.712 390.419,304.064 390.417,304.250 390.369 C 304.437 390.320,304.238 390.281,303.809 390.284 C 303.379 390.286,303.226 390.326,303.469 390.373 " stroke="none" fill="#f7fafb" fill-rule="evenodd"></path><path id="path1" d="M93.359 6.775 C 76.585 7.022,66.374 8.319,57.360 11.347 C 32.341 19.753,15.216 39.867,10.236 66.699 C 8.543 75.820,8.612 70.367,8.603 196.875 C 8.595 319.927,8.572 317.576,9.874 325.879 C 10.043 326.953,10.257 328.315,10.350 328.906 C 10.443 329.497,10.708 330.859,10.939 331.934 C 11.170 333.008,11.433 334.238,11.524 334.668 C 11.615 335.098,11.879 336.108,12.111 336.914 C 12.343 337.720,12.618 338.727,12.722 339.152 C 15.740 351.507,25.380 366.037,36.010 374.255 C 38.189 375.939,38.530 376.162,38.734 376.036 C 38.840 375.970,38.873 376.005,38.806 376.113 C 38.701 376.282,40.593 377.579,44.238 379.835 C 45.968 380.906,49.894 382.819,50.157 382.719 C 50.296 382.665,50.368 382.691,50.315 382.776 C 49.982 383.315,61.705 387.353,65.723 388.083 C 66.152 388.161,67.075 388.332,67.773 388.463 C 71.194 389.104,72.125 389.253,74.023 389.465 C 75.151 389.592,76.646 389.730,77.344 389.773 C 78.042 389.815,80.151 390.002,82.031 390.189 C 88.165 390.796,316.502 390.681,316.135 390.070 C 316.092 389.999,317.212 389.917,318.624 389.888 C 320.036 389.859,321.763 389.746,322.461 389.638 C 323.159 389.530,324.521 389.356,325.488 389.251 C 327.927 388.986,328.721 388.846,328.628 388.696 C 328.584 388.625,328.908 388.601,329.346 388.643 C 330.188 388.723,332.227 388.350,332.227 388.116 C 332.227 388.040,332.590 388.013,333.034 388.055 C 333.650 388.114,333.804 388.073,333.687 387.883 C 333.592 387.730,333.612 387.683,333.739 387.762 C 334.001 387.924,335.179 387.695,335.061 387.504 C 335.013 387.426,335.179 387.401,335.431 387.449 C 335.897 387.538,339.941 386.398,342.969 385.325 C 347.544 383.703,353.395 380.802,357.227 378.256 C 361.725 375.266,367.936 370.274,367.817 369.743 C 367.788 369.611,367.840 369.549,367.933 369.607 C 368.320 369.846,373.195 364.478,375.806 360.938 C 380.193 354.989,384.473 346.526,386.374 340.039 C 387.221 337.148,387.537 335.994,387.686 335.254 C 387.772 334.824,388.019 333.594,388.235 332.520 C 388.590 330.749,388.917 328.785,389.455 325.195 C 389.721 323.414,390.043 319.960,390.273 316.406 C 390.399 314.467,390.504 273.295,390.566 201.855 C 390.662 90.904,390.615 79.831,390.024 75.488 C 389.921 74.736,389.752 73.286,389.649 72.266 C 387.035 46.582,372.887 25.899,350.492 15.020 C 339.370 9.617,328.718 7.525,308.887 6.846 C 303.696 6.669,105.052 6.603,93.359 6.775 M115.479 6.982 C 112.229 7.012,106.912 7.012,103.662 6.982 C 100.413 6.952,103.071 6.928,109.570 6.928 C 116.069 6.928,118.728 6.952,115.479 6.982 M123.584 6.971 C 123.396 7.020,123.088 7.020,122.900 6.971 C 122.712 6.921,122.866 6.881,123.242 6.881 C 123.618 6.881,123.772 6.921,123.584 6.971 M127.393 6.979 C 126.936 7.020,126.189 7.020,125.732 6.979 C 125.276 6.938,125.649 6.904,126.563 6.904 C 127.476 6.904,127.849 6.938,127.393 6.979 M267.139 6.971 C 266.951 7.020,266.643 7.020,266.455 6.971 C 266.267 6.921,266.421 6.881,266.797 6.881 C 267.173 6.881,267.327 6.921,267.139 6.971 M303.857 6.979 C 303.347 7.020,302.512 7.020,302.002 6.979 C 301.492 6.939,301.909 6.906,302.930 6.906 C 303.950 6.906,304.368 6.939,303.857 6.979 M251.953 47.959 C 259.333 49.686,262.875 55.203,262.983 65.141 C 263.034 69.812,263.100 70.139,264.211 71.204 C 265.031 71.992,265.817 72.246,267.758 72.353 C 270.307 72.493,271.619 73.376,272.188 75.333 C 273.801 80.880,264.261 81.871,258.688 76.734 C 255.825 74.094,255.045 71.759,254.884 65.332 C 254.740 59.568,254.568 58.874,252.855 57.116 C 250.201 54.392,247.075 55.785,245.593 60.352 C 245.161 61.682,244.906 75.780,245.305 76.260 C 245.426 76.407,246.071 76.589,246.737 76.666 C 253.398 77.432,258.593 81.612,260.755 87.945 C 261.640 90.537,261.719 91.801,261.719 103.425 C 261.719 113.531,261.741 114.256,262.061 114.422 C 262.249 114.520,263.228 114.836,264.237 115.124 C 271.340 117.152,276.711 121.957,278.826 128.178 C 279.866 131.237,279.864 133.625,278.805 148.340 C 278.651 150.488,278.346 155.234,278.129 158.887 C 277.911 162.539,277.689 165.923,277.634 166.406 C 277.580 166.890,277.404 169.526,277.244 172.266 C 277.084 175.005,276.736 180.674,276.470 184.863 C 275.917 193.587,275.569 199.211,274.897 210.254 C 274.337 219.458,274.136 221.465,273.601 223.211 C 272.123 228.037,268.442 231.882,263.761 233.490 C 262.906 233.784,262.097 234.114,261.963 234.224 C 261.774 234.377,261.719 236.334,261.719 242.799 C 261.719 252.147,261.580 253.780,260.528 256.761 C 257.664 264.884,251.156 270.274,242.093 272.029 C 240.065 272.421,154.958 272.644,150.781 272.268 C 140.131 271.308,131.885 264.932,129.325 255.676 L 128.809 253.809 128.755 172.656 C 128.718 116.654,128.765 91.088,128.907 90.163 C 129.987 83.103,135.841 77.580,143.105 76.766 C 144.917 76.562,144.911 76.571,144.934 74.023 C 144.992 67.628,145.286 61.762,145.609 60.547 C 147.162 54.702,151.578 50.326,157.880 48.390 L 159.277 47.960 193.848 47.853 C 212.861 47.794,233.428 47.727,239.551 47.704 C 248.934 47.669,250.883 47.709,251.953 47.959 M194.629 55.858 C 155.672 55.969,159.208 55.828,156.882 57.368 C 152.946 59.976,152.756 60.948,152.889 77.900 L 152.985 90.262 153.417 90.545 C 154.036 90.950,236.285 90.871,236.775 90.464 C 237.053 90.234,237.094 88.723,237.165 76.304 C 237.252 61.167,237.247 61.237,238.455 57.672 C 239.181 55.531,239.466 55.651,233.822 55.711 C 231.387 55.737,213.750 55.803,194.629 55.858 M205.492 68.948 C 209.319 70.012,209.409 75.310,205.618 76.394 C 204.335 76.760,171.089 76.762,170.052 76.395 C 166.425 75.114,166.571 70.057,170.266 68.944 C 171.061 68.705,204.630 68.709,205.492 68.948 M142.578 84.939 C 139.992 85.775,138.289 87.201,137.245 89.406 L 136.621 90.723 136.571 171.169 C 136.522 251.375,136.523 251.621,136.917 253.283 C 137.977 257.745,141.196 261.472,145.485 263.205 C 148.530 264.435,145.076 264.355,195.508 264.355 L 241.309 264.355 243.066 263.807 C 248.363 262.155,252.057 258.409,253.320 253.411 C 253.712 251.863,253.713 251.467,253.663 171.387 L 253.613 90.918 253.161 89.852 C 251.930 86.953,249.536 85.099,246.484 84.680 C 245.021 84.479,245.032 84.450,244.920 88.811 C 244.790 93.877,243.883 95.946,241.069 97.595 C 238.811 98.918,242.602 98.816,194.946 98.834 L 152.004 98.849 150.758 98.433 C 146.399 96.976,144.928 94.440,144.924 88.369 C 144.921 84.223,144.898 84.189,142.578 84.939 M238.033 109.446 C 241.546 110.467,243.815 112.811,244.627 116.256 C 244.980 117.750,245.064 166.627,244.719 169.043 C 244.156 172.981,241.221 176.167,237.364 177.030 C 235.031 177.551,155.015 177.498,152.997 176.974 C 149.168 175.979,146.551 173.491,145.560 169.901 C 145.020 167.947,145.038 117.704,145.579 115.926 C 146.610 112.536,148.561 110.512,151.809 109.460 L 153.223 109.002 194.834 108.993 L 236.446 108.984 238.033 109.446 M154.800 117.013 C 154.399 117.078,153.880 117.322,153.647 117.555 L 153.223 117.979 153.125 141.265 C 153.010 168.585,152.989 167.793,153.861 168.571 L 154.498 169.141 195.117 169.141 L 235.736 169.141 236.374 168.571 L 237.012 168.001 237.063 143.149 C 237.119 115.568,237.218 117.653,235.829 117.073 C 235.143 116.786,156.556 116.728,154.800 117.013 M261.849 123.177 C 261.557 123.469,261.701 225.396,261.994 225.509 C 262.650 225.760,264.973 223.938,265.619 222.665 C 266.276 221.371,266.609 218.810,266.993 212.109 C 267.333 206.183,268.579 186.322,268.948 180.957 C 269.233 176.814,270.284 160.444,270.415 158.105 C 270.475 157.031,270.609 154.966,270.713 153.516 C 272.354 130.466,272.347 130.357,269.117 126.852 C 267.255 124.833,262.565 122.461,261.849 123.177 M206.072 130.493 C 209.313 132.012,209.003 136.810,205.609 137.664 C 204.379 137.974,168.045 137.987,166.605 137.678 C 163.095 136.925,162.576 132.153,165.820 130.456 C 166.787 129.951,167.938 129.922,186.328 129.951 L 204.980 129.980 206.072 130.493 M192.406 147.855 C 195.990 148.850,196.523 153.391,193.262 155.146 C 192.484 155.564,192.415 155.566,179.492 155.566 L 166.504 155.566 165.698 155.136 C 162.836 153.604,162.903 149.644,165.818 148.103 L 166.663 147.656 179.181 147.657 C 186.965 147.658,191.966 147.733,192.406 147.855 M171.815 189.948 C 173.628 190.852,173.891 191.475,174.068 195.290 C 174.329 200.903,173.776 202.640,171.530 203.269 C 170.826 203.465,154.999 203.457,154.049 203.259 C 151.817 202.795,151.164 201.293,151.125 196.535 C 151.067 189.520,151.142 189.474,162.706 189.462 L 170.822 189.453 171.815 189.948 M204.040 189.861 C 206.027 190.823,206.445 191.999,206.445 196.621 C 206.445 200.951,206.111 201.986,204.398 202.968 L 203.613 203.418 195.117 203.418 L 186.621 203.418 185.728 202.893 C 185.238 202.605,184.578 201.997,184.264 201.543 L 183.691 200.718 183.630 196.992 C 183.548 191.954,184.118 190.414,186.330 189.710 C 187.760 189.255,203.057 189.385,204.040 189.861 M235.812 189.693 C 237.960 190.336,238.674 192.007,238.667 196.373 C 238.660 200.687,238.202 202.063,236.474 202.964 C 235.356 203.547,219.125 203.653,218.066 203.084 C 216.100 202.027,215.723 200.995,215.723 196.680 C 215.723 191.832,216.287 190.460,218.577 189.746 C 219.752 189.380,234.615 189.334,235.812 189.693 M171.289 212.717 C 173.684 213.803,174.078 214.796,174.041 219.662 C 174.006 224.333,173.658 225.345,171.800 226.189 C 170.857 226.617,155.508 226.761,154.047 226.355 C 151.687 225.700,151.074 224.294,151.074 219.531 C 151.074 213.739,151.769 212.728,155.914 212.483 C 160.363 212.221,170.536 212.375,171.289 212.717 M204.102 213.009 C 204.849 213.431,205.354 213.902,205.762 214.556 L 206.348 215.497 206.348 219.521 C 206.348 224.410,206.143 225.065,204.315 226.020 L 203.276 226.563 195.222 226.563 C 185.595 226.563,185.221 226.485,184.107 224.255 C 183.144 222.330,183.280 216.163,184.321 214.477 C 185.554 212.483,186.397 212.337,196.484 212.377 L 203.027 212.402 204.102 213.009 M236.032 212.757 C 238.170 213.711,238.556 214.638,238.638 219.022 C 238.781 226.568,238.788 226.563,227.210 226.561 L 219.043 226.559 218.047 226.095 C 216.128 225.201,215.625 223.881,215.625 219.737 C 215.625 214.224,216.571 212.760,220.311 212.477 C 224.134 212.188,235.199 212.385,236.032 212.757 M171.344 235.810 C 173.606 236.758,174.024 237.803,174.067 242.618 C 174.130 249.680,174.086 249.708,162.793 249.705 C 151.270 249.702,150.977 249.529,150.977 242.746 C 150.977 238.002,151.628 236.394,153.809 235.754 C 154.835 235.453,170.611 235.503,171.344 235.810 M203.598 235.821 C 205.918 236.790,206.348 237.876,206.348 242.773 C 206.348 249.771,206.149 249.887,194.352 249.754 C 183.600 249.633,183.496 249.565,183.496 242.573 C 183.496 237.945,184.238 236.289,186.557 235.741 C 187.810 235.444,202.866 235.515,203.598 235.821 M235.785 235.751 C 238.099 236.394,238.574 237.575,238.574 242.691 L 238.574 246.808 237.988 247.752 C 236.816 249.640,236.127 249.753,225.977 249.725 L 219.238 249.707 218.140 249.168 C 216.111 248.171,215.637 246.957,215.630 242.734 C 215.621 237.965,216.372 236.317,218.820 235.733 C 219.788 235.502,234.947 235.518,235.785 235.751 M114.336 295.207 C 120.583 296.472,125.271 299.559,128.644 304.628 C 130.589 307.551,131.204 309.509,130.564 310.746 C 130.090 311.663,129.798 311.719,125.447 311.719 C 120.926 311.719,120.889 311.710,120.097 310.401 C 115.743 303.205,106.088 301.835,99.420 307.467 C 91.166 314.439,92.321 330.850,101.446 336.254 C 109.479 341.011,120.508 336.351,120.508 328.199 C 120.508 327.047,120.523 327.051,115.820 327.048 C 110.097 327.045,109.943 326.949,109.813 323.340 C 109.647 318.711,109.320 318.863,119.594 318.784 C 129.378 318.709,130.118 318.759,130.919 319.561 L 131.497 320.139 131.385 323.692 C 130.857 340.551,120.719 349.108,103.656 347.095 C 81.145 344.440,75.388 309.749,95.456 297.687 C 99.921 295.004,108.055 293.935,114.336 295.207 M205.126 295.193 C 211.812 296.611,216.496 300.179,218.270 305.205 C 219.643 309.096,218.525 309.971,212.513 309.714 C 209.491 309.584,209.521 309.596,208.576 308.100 C 207.052 305.688,205.085 304.414,201.967 303.823 C 195.985 302.688,191.692 304.849,191.713 308.984 C 191.732 312.525,193.267 313.497,203.125 316.211 C 216.146 319.796,219.824 323.216,219.824 331.738 C 219.824 340.398,214.755 345.702,205.176 347.064 C 193.031 348.790,182.084 343.814,179.993 335.616 C 179.028 331.829,179.683 331.250,184.933 331.250 C 189.200 331.250,189.016 331.174,190.144 333.413 C 193.395 339.869,207.047 340.499,208.790 334.274 C 209.986 330.002,208.013 328.485,197.266 325.413 C 190.786 323.560,188.004 322.411,185.547 320.572 C 178.292 315.143,179.318 302.352,187.399 297.477 C 191.500 295.003,199.421 293.983,205.126 295.193 M297.949 295.026 C 304.974 296.217,310.391 299.489,313.752 304.573 C 322.523 317.836,318.863 337.179,306.238 344.296 C 299.561 348.060,287.747 348.281,280.762 344.774 C 262.950 335.829,263.320 305.693,281.348 297.074 C 285.677 295.005,292.708 294.137,297.949 295.026 M264.012 295.756 C 265.204 296.408,265.333 296.826,265.320 299.992 C 265.300 304.930,265.589 304.756,257.222 304.883 C 252.320 304.957,250.740 305.041,250.547 305.234 C 250.343 305.438,250.274 309.396,250.195 325.156 C 250.077 349.018,250.596 346.509,245.747 346.645 C 242.043 346.749,240.961 346.604,240.171 345.899 L 239.551 345.345 239.453 325.416 C 239.375 309.441,239.305 305.438,239.102 305.234 C 238.908 305.040,237.294 304.958,232.231 304.883 C 223.657 304.756,224.031 304.970,224.027 300.195 C 224.025 297.128,224.216 296.443,225.234 295.862 C 226.307 295.250,262.903 295.150,264.012 295.756 M171.182 295.784 C 172.396 296.292,172.559 296.789,172.559 299.991 C 172.559 304.969,173.519 304.575,161.199 304.647 C 153.236 304.694,151.360 304.754,151.181 304.970 C 150.798 305.431,150.877 315.414,151.267 315.803 C 151.541 316.077,152.622 316.113,160.611 316.113 C 172.000 316.113,171.388 315.844,171.258 320.798 C 171.143 325.208,171.829 324.940,160.402 325.037 C 153.478 325.095,151.314 325.170,151.125 325.359 C 150.817 325.668,150.879 336.503,151.191 336.816 C 151.314 336.939,155.133 337.048,161.484 337.109 C 174.313 337.233,173.526 336.914,173.403 341.946 C 173.328 345.036,173.117 345.817,172.215 346.332 C 171.437 346.776,141.650 346.689,140.965 346.240 C 139.892 345.537,139.945 346.690,139.889 323.016 C 139.829 298.147,139.871 296.885,140.795 296.059 L 141.412 295.508 155.966 295.508 C 168.080 295.508,170.631 295.554,171.182 295.784 M289.746 304.394 C 275.798 307.510,273.949 331.374,287.237 336.774 C 295.226 340.020,303.966 336.275,306.662 328.450 C 311.495 314.424,302.447 301.557,289.746 304.394 M106.206 390.376 C 105.806 390.418,105.103 390.419,104.644 390.378 C 104.184 390.336,104.512 390.302,105.371 390.301 C 106.230 390.301,106.606 390.334,106.206 390.376 M109.326 390.369 C 109.138 390.418,108.831 390.418,108.643 390.369 C 108.455 390.320,108.608 390.280,108.984 390.280 C 109.360 390.280,109.514 390.320,109.326 390.369 M134.814 390.376 C 134.465 390.419,133.894 390.419,133.545 390.376 C 133.196 390.332,133.481 390.297,134.180 390.297 C 134.878 390.297,135.164 390.332,134.814 390.376 M142.041 390.380 C 141.047 390.415,139.421 390.415,138.428 390.380 C 137.434 390.344,138.247 390.315,140.234 390.315 C 142.222 390.315,143.035 390.344,142.041 390.380 M175.830 390.381 C 170.217 390.410,161.033 390.410,155.420 390.381 C 149.807 390.352,154.399 390.328,165.625 390.328 C 176.851 390.328,181.443 390.352,175.830 390.381 M195.850 390.369 C 195.662 390.418,195.354 390.418,195.166 390.369 C 194.978 390.320,195.132 390.280,195.508 390.280 C 195.884 390.280,196.038 390.320,195.850 390.369 M304.250 390.369 C 304.064 390.417,303.712 390.419,303.469 390.373 C 303.226 390.326,303.379 390.286,303.809 390.284 C 304.238 390.281,304.437 390.320,304.250 390.369 " stroke="none" fill="#3caed4" fill-rule="evenodd"></path></g></svg>