<svg xmlns="http://www.w3.org/2000/svg" xml:space="preserve" viewBox="0 0 1226 485">
  <path fill="none" stroke="#315072" stroke-linecap="round" stroke-linejoin="round" stroke-width="5" d="M110.5 207.5c-6.370491-4.319122-13.527267-7.165787-21.017609-7.788086-7.551376-.62738-15.111297.907227-21.48513 5.784515-13.416946 10.266663-21.150421 23.694626-23.662029 40.478913-.831043 5.553558-1.118111 10.78244.69754 16.013275 2.231682 6.429382 5.345688 7.200775 9.949032 2.493591 6.558395-6.70636 11.318802-14.761688 16.518501-22.48201C80.336205 228.880966 89.370697 215.888397 97 202"/>
  <path fill="none" stroke="#315072" stroke-linecap="round" stroke-linejoin="round" stroke-width="5" d="M139 138.5c-4.527725 1.081741-5.95842 5.025299-8.025894 8.484528C120.196289 165.0177 109.333336 183 98.5 201"/>
  <path fill="none" stroke="#315072" stroke-linecap="round" stroke-linejoin="round" stroke-width="6" d="M170.5 59.5c2.423569 9.948105-4.371323 17.259689-7.672119 25.430466-4.134842 10.235351-9.404755 20.031463-12.760162 30.591049-1.55716 4.900421-4.206345 9.248894-6.109025 13.961807-1.76535 4.372757-3.520935 8.402985-3.841964 13.492508-.395355 6.267868-3.583222 12.368607-5.622254 18.522339-12.2994 37.119263-23.424301 74.591309-32.878891 112.53064-3.069336 12.316589-4.903129 24.950653-7.032814 37.48526-.550453 3.239807-.158088 6.654968-.052337 9.984954.05645 1.777497.758636 3.211915 2.969566 3.000977"/>
  <path fill="none" stroke="#315072" stroke-linecap="round" stroke-linejoin="round" stroke-width="6" d="M275 227.5c11.562469-2.25737 20.316193-8.609116 26.446564-18.533005 1.823974-2.952698 2.559356-6.392868.018707-9.438019-2.0672-2.477661-7.109039-2.440307-11.443146.010163-1.636474.925278-3.025451 2.289963-4.521393 3.461822-2.503326 1.961029-4.919403 3.041916-8.521087 2.751877-3.741974-.30133-7.676514 1.295929-11.47403 2.269013-11.879883 3.044143-23.799988 5.012649-36.434662 1.678039-3.033172 5.116104-6.022949 10.225647-9.079513 15.294953-2.788391 4.624527-6.949433 7.7303-11.450974 10.56932-2.55249 1.609772-5.225067 1.325821-7.487396.534165-2.924683-1.023392-2.417908-4.316712-1.931473-6.572098.790009-3.662903-.264587-7.429672 1.266556-11.073227.93779-2.231613-.07135-4.527115-2.377457-5.970108-2.209289-1.382416-3.977722-.294708-5.483551 1.047546-5.899749 5.258835-11.780395 10.545426-17.499374 15.998673-4.462219 4.254898-9.154022 8.211151-14.023239 11.976745-2.427994 1.877655-5.596909 2.333268-7.911957 1.288926-2.799759-1.262986-4.163681-4.267823-4.157654-7.794892.012863-7.52211 2.224304-14.483291 4.514878-21.51625 3.790329-11.637894 8.598739-22.792817 14.488281-33.51764 1.109939-2.021179 2.335083-3.450363 4.56192-3.966003"/>
  <path fill="none" stroke="#315072" stroke-linecap="round" stroke-linejoin="round" stroke-width="6" d="M368 209.5c-6.297791-.559998-11.157227 3.21022-16.495728 5.509949-14.873657 6.407409-29.326141 13.792541-44.525726 19.432251-5.03064 1.866592-10.224823 3.7863-15.495453 4.416321-13.839294 1.654251-20.137634-8.184662-16.006531-20.86615 1.305237-4.006852 4.365784-7.220337 5.023438-11.492371"/>
  <path fill="none" stroke="#315072" stroke-linecap="round" stroke-linejoin="round" stroke-width="4" d="M383.5 200.5c-4.026855 1.58255-7.718475 4.561951-12.5 3"/>
  <path fill="none" stroke="#315072" stroke-linecap="round" stroke-linejoin="round" stroke-width="8" d="M408.5 48.5c-1.574677 9.961422-7.179779 18.46801-10.059021 27.982132-5.93399 19.607796-10.669861 39.497116-14.970245 59.511581-3.859467 17.962281-7.843018 35.899094-10.94278 54.011078-2.079864 12.152542-4.435608 24.253266-6.107605 36.484314-1.865661 13.647522-3.756775 27.281418-4.939361 41.009247-.516785 5.998932-1.316468 11.957825-1.629792 17.993927-.286102 5.511536-.847473 10.938355-.524383 16.517761.268463 4.635315 1.315185 9.018311 2.173187 13.48996"/>
  <path fill="none" stroke="#315072" stroke-linecap="round" stroke-linejoin="round" stroke-width="8" d="M449.5 48.5c-.188629 4.685547-1.974731 8.846828-3.96524 13.01659-7.132996 14.942242-10.507752 31.075489-14.50589 46.990666-6.980286 27.786094-12.498719 55.903022-17.842652 84.028129-2.761535 14.533997-5.113495 29.199127-6.778503 43.954209-1.560425 13.828674-3.453583 27.603729-4.568848 41.497467-.872925 10.874603-2.060272 21.673584-.221405 32.492981.321625 1.892333-.730347 5.111846 2.882538 5.519958"/>
  <path fill="none" stroke="#315072" stroke-linecap="round" stroke-linejoin="round" stroke-width="5" d="M454.75 200c-5.663513 6.817535-6.976349 15.136932-7.666077 23.506912-.573761 6.96254 3.99585 10.215317 10.923096 8.776932 20.322357-4.219742 39.47522-12.078934 58.970154-18.849518 8.967285-3.114334 17.848511-6.596985 26.426086-10.639526 2.579163-1.215531 4.999024.691437 7.096741-1.0448"/>
  <path fill="none" stroke="#315072" stroke-linecap="round" stroke-linejoin="round" stroke-width="6" d="M685.25 204.5c-7.302185.607101-13.159058 5.026611-19.724304 7.566452-18.890015 7.307907-37.070008 16.482224-57.002136 21.036591-3.886475.888031-7.673401.812606-11.523865.877075-3.650269.061111-5.83606-1.636521-6.001587-5.480042-.157837-3.667053-.340637-7.333023-.496155-11.000152-.306213-7.223419-3.119385-8.916748-10.019409-6.550782-6.697266 2.296448-12.380005 6.644547-18.996948 9.010575-3.74408 1.338791-6.898011 3.97493-10.97992 4.578659-4.802368.710251-5.459778-.299896-4.613281-5.057526.98822-5.553604 4.025574-10.644714 3.607605-16.48085"/>
  <path fill="none" stroke="#315072" stroke-linecap="round" stroke-linejoin="round" stroke-width="6" d="M742 226.5c-2.65033-4.133255-1.534973-9.099243-2.98645-13.504456-.963135-2.923004-1.648865-5.846588-3.432862-8.548797-4.653198-7.04802-12.119506-8.505097-19.138183-4.037049-5.875916 3.740647-10.785523 8.631791-16.449158 12.580765-1.288086.898163-2.614807 1.762284-4.002746 2.491654-2.896912 1.522323-5.839295 3.318359-8.985047.511673-1.518982-1.355271-2.541504-9.748719-.940307-11.431687 4.947998-5.200546 9.41687-10.84761 17.398925-12.264007 4.811036-.853699 8.853577.220291 13.006653 1.779541 1.482666.556656 2.224549 2.258575 2.529175 3.922363"/>
  <path fill="none" stroke="#315072" stroke-linecap="round" stroke-linejoin="round" stroke-width="7" d="M831 201c-4.571655-1.767258-9.178772-.017776-13.46228.719238-15.888062 2.733719-31.421265 6.950333-46.587036 12.649552-9.683655 3.639068-19.482239 7.414703-28.263611 12.456985-16.165894 9.282486-31.563538 20.033676-44.213074 34.15094-12.503906 13.95462-24.661621 28.240845-33.818848 44.610077-6.643982 11.876892-12.001526 24.527527-13.105163 38.417175-.333985 4.202362.210754 8.364044 1.380188 12.515717 2.394409 8.500915 11.011474 11.558197 20.565429 8.96402 10.121338-2.748261 18.015076-9.148865 24.936097-16.547577 17.425293-18.628052 27.491455-41.295624 34.531799-65.446778 4.141663-14.207245 6.527039-28.785904 7.9505-43.497665.304078-3.143417 1.008912-6.628632-1.414001-9.491684"/>
  <path fill="none" stroke="#315072" stroke-linecap="round" stroke-linejoin="round" stroke-width="6" d="M842.25 178c-2.388672 19.104401-6.773804 37.808655-11.19043 56.514069-.879089 3.722976-2.938965 7.5419-.55957 11.485931"/>
  <path fill="none" stroke="#315072" stroke-linecap="round" stroke-linejoin="round" stroke-width="6" d="M878 234.5c-3.133423-.608658-5.795532.286591-8.534851 1.942352-9.451477 5.712921-19.395996 10.685761-26.972168 19.05127-1.924561 2.125-1.964539 2.088775-3.024536 6.126678 3.283142 5.288452 8.437744 4.043885 12.452331 2.206604 9.700562-4.439361 17.993836-10.971176 23.540772-20.34964 3.111816-5.261398 5.474304-11.168624 7.470764-16.6828 1.890564-5.221619 1.585571-12.50116-1.941528-18.288834-1.798706-2.951385-5.706665-4.15982-9.455628-2.429397-3.170654 1.463516-6.325439 3.24585-8.983398 5.485214-9.932007 8.367645-18.437439 18.049103-25.567383 28.92833-1.516541 2.314087-3.134705 4.281784-5.830811 5.785522-1.95343 1.089493-2.542114 4.700607-3.644958 7.228439-10.116272 23.186936-18.773621 46.929001-26.377502 71.037613-1.601868 5.078766-4.594849 9.844941-4.381104 15.458649"/>
  <path fill="none" stroke="#315072" stroke-linecap="round" stroke-linejoin="round" stroke-width="5" d="M942 206c-5.611328-1.453186-10.22699 1.769135-14.95343 3.619034-11.736511 4.593521-23.345886 9.530792-34.596131 15.284103C889.944153 226.18483 887.086975 227.41124 884 227"/>
  <path fill="none" stroke="#315072" stroke-linecap="round" stroke-linejoin="round" stroke-width="4" d="M958.5 199.5c-4.79425-.226212-9.074097 3.148178-14 2"/>
  <path fill="none" stroke="#315072" stroke-linecap="round" stroke-linejoin="round" stroke-width="8" d="M982 47.5c-.313354 6.41161-3.385559 11.854778-5.960022 17.518181-6.31366 13.889122-9.283386 28.821487-12.984558 43.495804-7.005798 27.777198-12.373413 55.922813-17.930969 84.010643-2.874268 14.526672-4.481446 29.305252-6.617615 43.976364-2.054016 14.106766-3.579834 28.256485-4.676209 42.485946-.8526 11.065247-1.974914 22.000977.106202 33.024994.34613 1.833466.061401 3.69751 2.563171 3.988068"/>
  <path fill="none" stroke="#315072" stroke-linecap="round" stroke-linejoin="round" stroke-width="6" d="M1025.5 209.5c-4.514343-.271561-6.713928 3.317749-8.903076 6.076889-8.658814 10.913513-19.294251 19.53801-30.644776 27.353592-2.574585 1.772751-5.802063 4.215347-8.871704 2.884003-3.882446-1.683869-2.768005-6.002182-2.504882-9.308472.531066-6.67247 3.743042-12.535996 6.467102-18.486496 2.618652-5.720413 6.223144-10.857437 10.482727-15.496185.853515-.929413 1.037292-1.891327.974609-3.023331"/>
  <path fill="none" stroke="#315072" stroke-linecap="round" stroke-linejoin="round" stroke-width="6" d="M1138 200c-8.759644 3.576065-16.080322 9.532059-24.005493 14.491287-19.531006 12.221649-38.557373 25.255326-58.964234 36.06575-8.847656 4.686936-17.983398 8.59375-27.550903 11.371979-9.000671 2.613678-14.940369-3.657776-13.027099-12.938858 2.286132-11.089706 5.924926-21.688232 10.532348-31.997055 1.808838-4.047272.564942-9.185287 4.499146-12.512268 1.28186-1.084106 1.681884-3.315491 4.016235-2.980835"/>
  <path fill="none" stroke="#315072" stroke-linecap="round" stroke-linejoin="round" stroke-width="7" d="M1151.5 155.5c-9.825562 2.96875-16.071777 9.108902-18.075562 19.485413-1.025512 5.31105 1.23584 9.735046 2.497681 14.535049 2.554321 9.717224 6.691162 18.791245 10.577881 27.979538"/>
  <path fill="none" stroke="#315072" stroke-linecap="round" stroke-linejoin="round" stroke-width="7" d="M1145.5 222c-1.646606.040054-2.86731.912323-4.003174 1.996704-13.305054 12.702118-26.585083 25.508759-35.887573 41.566589-5.579468 9.631134-10.497925 19.765717-10.094482 31.436188.163696 4.735291.95166 9.044251 4.899536 12.595734 4.726196 4.251526 10.036377 3.544586 15.054809 2.281891 16.325318-4.107697 27.017456-15.126374 33.966797-29.907227 6.447266-13.713104 5.644653-28.135162 2.458618-42.44638-1.332763-5.985932-1.44226-12.463898-5.780273-17.619614-.860962-1.023193.151123-3.502594 1.431518-4.333344 11.483033-7.450256 21.484497-17.097274 33.968995-23.039474 3.235107-1.53978 6.651855-2.697754 9.985229-4.031082"/>
</svg>
